<svg xmlns="http://www.w3.org/2000/svg" width="37.999" height="43.141" viewBox="0 0 37.999 43.141">
  <path id="bell" d="M18,41.141A5.142,5.142,0,0,0,23.139,36H12.858A5.142,5.142,0,0,0,18,41.141Zm17.308-12.03c-1.552-1.668-4.457-4.178-4.457-12.4A12.689,12.689,0,0,0,20.569,4.246V2.571a2.57,2.57,0,1,0-5.139,0V4.246A12.689,12.689,0,0,0,5.148,16.714c0,8.22-2.9,10.73-4.457,12.4A2.511,2.511,0,0,0,0,30.856a2.574,2.574,0,0,0,2.579,2.571h30.84A2.573,2.573,0,0,0,36,30.856,2.509,2.509,0,0,0,35.306,29.112Z" transform="translate(1.001 1)" fill="#f9faff" stroke="#707070" stroke-width="2"/>
</svg>
