<svg xmlns="http://www.w3.org/2000/svg" width="67.521" height="90.029" viewBox="0 0 67.521 90.029">
  <path id="file-image" d="M39.387,22.507V0H8.44A8.44,8.44,0,0,0,0,8.44V81.588a8.441,8.441,0,0,0,8.44,8.44H59.081a8.44,8.44,0,0,0,8.44-8.44V28.134H45.173A5.657,5.657,0,0,1,39.387,22.507ZM16.88,39.387a5.627,5.627,0,1,1-5.627,5.627A5.627,5.627,0,0,1,16.88,39.387ZM55.934,77.28a2.79,2.79,0,0,1-2.479,1.495H14.067A2.813,2.813,0,0,1,11.726,74.4L21.1,60.335a2.46,2.46,0,0,1,2.336-1.254,2.627,2.627,0,0,1,2.34,1.253l2.354,3.53L36.108,51.9a2.814,2.814,0,0,1,4.688-.008L55.8,74.4A2.8,2.8,0,0,1,55.934,77.28ZM45.014,0V22.507H67.521Z" fill="#949494"/>
</svg>
